<svg xmlns="http://www.w3.org/2000/svg" viewBox="0 0 43.61 27.01"><defs><style>.cls-1{fill:#2c439b;}.cls-2{fill:#f2683e;}</style></defs><title>Asset 13</title><g id="Layer_2" data-name="Layer 2"><g id="Layer_1-2" data-name="Layer 1"><path class="cls-1" d="M0,14.29v-.06A11.2,11.2,0,0,1,11.49,2.87a10.77,10.77,0,0,1,9.27,4.52L16.2,10.92a5.94,5.94,0,0,0-4.78-2.56c-3.06,0-5.21,2.62-5.21,5.81v.06c0,3.28,2.15,5.84,5.21,5.84,2.28,0,3.62-1.06,4.93-2.66l4.56,3.25a11,11,0,0,1-9.64,4.93A11.09,11.09,0,0,1,0,14.29Z"/><path class="cls-2" d="M22.5,20.66l0,.05a11.09,11.09,0,0,0,5.8,4.06L28,27l9.46-3.58-7.78-7.64-.42,2.82A6.13,6.13,0,0,1,27.46,17l0,0a5.58,5.58,0,0,1,1-8h0L24.94,4.7A11.42,11.42,0,0,0,22.5,20.66Z"/><path class="cls-2" d="M35.44,2.47,36,0l-9.6,2.92,7.18,8.2.59-2.69a6.42,6.42,0,0,1,2.25,1.89l0,0a5.58,5.58,0,0,1-.61,7.7L39.61,22A11.38,11.38,0,0,0,41.38,6.61l0-.05A11.09,11.09,0,0,0,35.44,2.47Z"/></g></g></svg>